<svg xmlns="http://www.w3.org/2000/svg" viewBox="0 0 512 512" style="fill: #aaa">
	<path d="M463.3,459.3h-186v-64c0-11.8-9.6-21.3-21.3-21.3s-21.3,9.6-21.3,21.3v64h-187c-11.8,0-21.3,9.6-21.3,21.3
		S35.9,502,47.7,502h415.7c11.8,0,21.3-9.6,21.3-21.3S475.1,459.3,463.3,459.3z"/>
	<path d="M56.2,194.4l117.3-112c10.2-9.7,27.1-2.5,27.1,11.6v58.7h122.7v106.6H200.6V318c0,14.1-16.9,21.3-27.1,11.6
		l-117.3-112c-3.1-3-4.9-7.2-4.9-11.6S53.1,197.4,56.2,194.4z"/>
	<path d="M432.1,152.6h32.7c14.7,0,26.7,12,26.7,26.7v53.3c0,14.7-12,26.7-26.7,26.7h-32.7V152.6z"/>
	<path d="M359.4,152.7h32.7v106.6h-32.7V152.7z"/>
</svg>
