<svg xmlns="http://www.w3.org/2000/svg" style="fill: black; width: 30px;" viewBox="0 0 375 512">
	<path d="M356.8,51.4h-91.5V16.7c0-9.2-7.5-16.7-16.7-16.7H126.4c-9.2,0-16.7,7.5-16.7,16.7v34.7H18.2C9,51.4,1.5,58.8,1.5,68.1
		v51.4c0,9.2,7.5,16.7,16.7,16.7h338.6c9.2,0,16.7-7.5,16.7-16.7V68.1C373.5,58.8,366,51.4,356.8,51.4z
		M232,51.4h-88.9v-18H232
		V51.4z"/>
	<path d="M24.7,169.5L38.5,496c0.4,8.9,7.7,16,16.7,16h264.6c8.9,0,16.3-7.1,16.7-16l13.8-326.5L24.7,169.5L24.7,169.5z
		M137,444.1
		c0,9.2-7.5,16.7-16.7,16.7c-9.2,0-16.7-7.5-16.7-16.7V237.4c0-9.2,7.5-16.7,16.7-16.7c9.2,0,16.7,7.5,16.7,16.7V444.1z
		M204.2,444.1c0,9.2-7.5,16.7-16.7,16.7s-16.7-7.5-16.7-16.7V237.4c0-9.2,7.5-16.7,16.7-16.7s16.7,7.5,16.7,16.7V444.1z
		M271.4,444.1c0,9.2-7.5,16.7-16.7,16.7s-16.7-7.5-16.7-16.7V237.4c0-9.2,7.5-16.7,16.7-16.7s16.7,7.5,16.7,16.7L271.4,444.1
		L271.4,444.1z"/>
</svg>
