<svg xmlns="http://www.w3.org/2000/svg" viewBox="0 0 512 512" style="fill: #aaa">
	<path d="M463.3,459.3h-186v-64c0-11.8-9.6-21.3-21.3-21.3s-21.3,9.6-21.3,21.3v64h-187c-11.8,0-21.3,9.6-21.3,21.3
		S35.9,502,47.7,502h415.7c11.8,0,21.3-9.6,21.3-21.3S475.1,459.3,463.3,459.3z"/>
	<path d="M491.5,206c0,4.4-1.8,8.6-4.9,11.6l-117.3,112c-10.2,9.7-27.1,2.5-27.1-11.6v-58.7H219.5V152.7h122.7V94
		c0-14.1,16.9-21.3,27.1-11.6l117.3,112C489.7,197.4,491.5,201.6,491.5,206z"/>
	<path d="M110.7,259.3H78c-14.7,0-26.7-12-26.7-26.7v-53.3c0-14.7,12-26.7,26.7-26.7h32.7V259.3z"/>
	<path d="M183.4,259.3h-32.7V152.7h32.7V259.3z"/>
</svg>
