<svg xmlns="http://www.w3.org/2000/svg" style="fill: #fff;" viewBox="0 0 370 520">
	<path d="M168,102c-18.1-17.8-47.2-38.8-90.2-50.6l13.6-7.7c9.6-5.5,13-17.7,7.5-27.3c-5.5-9.6-17.7-13-27.3-7.5l-56.4,32
		c-1.8,1-3.4,2.3-4.7,3.7C6.9,48.4,5,53.5,5.1,58.7c0.1,3.2,0.9,6.5,2.6,9.5l32,56.4c3.7,6.5,10.4,10.1,17.4,10.1
		c3.3,0,6.7-0.8,9.9-2.6c9.6-5.5,13-17.7,7.5-27.3l-8.7-15.3c35.8,9.5,59.5,26.5,74.1,40.9c22.2,21.8,35.4,49.2,35.4,73.4
		c0,11,9,20,20,20s20-9,20-20C215.4,169.2,197.7,131.1,168,102z"/>
	<path d="M332.9,268.6H169.1l-32.4-29.8H18.3c-6.2,0-11.2,5-11.2,11.2v261.3c0.4,0,0.9,0,1.3,0.1l64.9-177c1.2-4.4,5.2-7.5,9.8-7.5
		h261v-47.1C344.1,273.7,339.1,268.6,332.9,268.6z"/>
	<path d="M359.6,353.7c-1.9-2.8-5-4.4-8.3-4.4H97.7c-4.1,0-7.7,2.5-9.3,6.2L29.5,499.2c-1.3,3.1-0.9,6.6,0.9,9.4s5,4.4,8.3,4.4h253
		c4,0,7.7-2.4,9.2-6.2l59.6-143.7C361.8,360,361.5,356.5,359.6,353.7z"/>
</svg>
