<svg xmlns="http://www.w3.org/2000/svg" style="fill: #fff;" viewBox="0 0 370 520">
	<circle cx="200.1" cy="397.5" r="60.2"/>
	<path d="M335.6,277h-55.3c-6,0-11.7-2.4-16-6.6l-12.5-12.5c-7.1-7.1-16.6-11-26.6-11h-50.3c-10.1,0-19.5,3.9-26.6,11l-12.5,12.5
		c-4.3,4.3-9.9,6.6-16,6.6H94.6v-7.5c0-4.2-3.4-7.5-7.5-7.5H57c-4.2,0-7.5,3.4-7.5,7.5v7.5H34.4c-16.6,0-30.1,13.5-30.1,30.1v180.7
		c0,16.6,13.5,30.1,30.1,30.1h301.2c16.6,0,30.1-13.5,30.1-30.1V307.2C365.7,290.5,352.2,277,335.6,277z M94.6,344.8
		c0,4.2-3.4,7.5-7.5,7.5H57c-4.2,0-7.5-3.4-7.5-7.5v-15.1c0-4.2,3.4-7.5,7.5-7.5h30.1c4.2,0,7.5,3.4,7.5,7.5L94.6,344.8L94.6,344.8z
		M200.1,472.8c-41.5,0-75.3-33.8-75.3-75.3s33.8-75.3,75.3-75.3s75.3,33.8,75.3,75.3S241.6,472.8,200.1,472.8z"/>
	<path d="M168,102c-18.1-17.8-47.2-38.8-90.2-50.6l13.6-7.7c9.6-5.5,13-17.7,7.5-27.3c-5.5-9.6-17.7-13-27.3-7.5l-56.4,32
		c-1.8,1-3.4,2.3-4.7,3.7C6.9,48.4,5,53.5,5.1,58.7c0.1,3.2,0.9,6.5,2.6,9.5l32,56.4c3.7,6.5,10.4,10.1,17.4,10.1
		c3.3,0,6.7-0.8,9.9-2.6c9.6-5.5,13-17.7,7.5-27.3l-8.7-15.3c35.8,9.5,59.5,26.5,74.1,40.9c22.2,21.8,35.4,49.2,35.4,73.4
		c0,11,9,20,20,20s20-9,20-20C215.4,169.2,197.7,131.1,168,102z"/>
</svg>
