<svg xmlns="http://www.w3.org/2000/svg" viewBox="0 0 512 512" style="fill: #aaa;">
	<path d="M463.3,459.3h-186v-64c0-11.8-9.6-21.3-21.3-21.3s-21.3,9.6-21.3,21.3v64h-187c-11.8,0-21.3,9.6-21.3,21.3
		S35.9,502,47.7,502h415.7c11.8,0,21.3-9.6,21.3-21.3S475.1,459.3,463.3,459.3z"/>
	<path d="M368.4,198.8c-1-5-5-8.7-10.1-9.3l-42.2-5l15.2-39.6c1.8-4.7,0.4-10.1-3.6-13.2c-2.1-1.7-4.7-2.6-7.3-2.6
		c-2.2,0-4.4,0.6-6.4,1.9l-35.5,23.3L264.8,114c-1.6-4.7-6-7.9-11-7.9c-0.1,0-0.2,0-0.2,0c-5.1,0.1-9.5,3.4-10.9,8.3l-12.2,40.7
		L194,133.3c-1.9-1.1-3.9-1.7-6-1.7c-2.8,0-5.5,1-7.7,2.9c-3.8,3.3-5,8.7-3,13.4l16.8,39l-41.9,6.6c-5,0.8-8.9,4.7-9.7,9.7
		c-0.8,5,1.7,9.9,6.3,12.2l37.9,19.1l-27.9,32c-3.3,3.8-3.8,9.3-1.2,13.7c2.1,3.5,6,5.6,10,5.6c0.9,0,1.8-0.1,2.7-0.3l41.3-9.7
		l-0.7,42.5c-0.1,5.1,3.1,9.6,7.9,11.2c1.2,0.4,2.5,0.6,3.8,0.6c3.6,0,7.1-1.7,9.3-4.7l25.4-34l26.7,33c2.3,2.8,5.6,4.3,9.1,4.3
		c1.4,0,2.8-0.3,4.2-0.8c4.7-1.8,7.7-6.5,7.4-11.5l-2.4-42.4l41.7,8.1c0.7,0.1,1.5,0.2,2.2,0.2c4.2,0,8.1-2.3,10.2-6
		c2.4-4.4,1.7-9.9-1.7-13.6l-29.1-30.9l37.1-20.6C367.1,208.8,369.4,203.8,368.4,198.8z"/>
</svg>
