<svg xmlns="http://www.w3.org/2000/svg" style="fill: #fff;" viewBox="0 0 850 830">
	<path d="M242.9,548.5c-4.8,2.1-10.1,3.2-15.7,3.2c-16.6,0-41.1,1.5-65.7,5.5c12.8,26.4,29.9,50.8,51,72.3
		c13.5-26.9,23.8-57.1,29-76.5C241.8,551.4,242.3,549.9,242.9,548.5z"/>
	<path d="M647.2,472.5c-29.2-5.5-51.8-19.7-65.1-41.2c-5.6-9.1-7.4-19.8-5-30.2s8.8-19.2,17.8-24.9c9.1-5.6,19.8-7.4,30.2-5
		c10.4,2.4,19.2,8.8,24.9,17.8c1.6,2.5,10.7,6.1,25.4,6c-6.8-42.5-23.6-82.4-49.1-117.1c-14.6,17.8-27.2,36.2-35.1,49.3
		c-7.2,12-20.3,19.4-34.3,19.4c-7.2,0-14.4-2-20.6-5.7c-9.2-5.5-15.6-14.3-18.2-24.6c-2.6-10.4-1-21.1,4.5-30.3
		c5.2-8.7,22.4-36.2,47.1-65.2c-45-33.8-99.1-52.7-156.1-54.2c-3.1,18.9-7.8,37.3-12.2,54.6c-3.9,15.1-7.9,30.8-8.5,39.3
		c-1.4,20.9-19,37.2-39.9,37.2c-0.9,0-1.8,0-2.8-0.1c-22-1.5-38.7-20.7-37.2-42.7c1.1-15.8,5.6-33.4,10.8-53.7
		c2-7.7,4-15.8,5.9-23.8c-30.1,8.8-58.4,22.8-83.9,41.5c0.3,0.4,0.6,0.8,1,1.2c19,23.7,42.5,45.9,58.2,58.8
		c17,14,19.5,39.3,5.5,56.3c-7.6,9.3-18.9,14.6-30.9,14.6c-9.2,0-18.2-3.2-25.4-9.1c-8.7-7.1-38-32.1-65.5-65.3
		c-35.3,46.9-54.4,103.6-54.4,163.3c0,14,1.1,27.8,3.1,41.4c41.4-7.8,78.6-8.4,89.6-8.4c22.1,0,40,17.9,40,40c0,5.2-1,10.2-2.8,14.8
		c8.2-3.5,17.3-4.2,26-1.9c21.3,5.7,34,27.6,28.3,49c-3,11.4-14.6,51.8-35.3,92.8c-2.1,4.1-4.2,8-6.3,11.9
		c39.3,21.4,83.6,32.7,129.6,32.7c7.4,0,14.8-0.3,22.1-0.9c-0.3-0.7-0.5-1.4-0.8-2.1c-19-53.3-14-85.5-9.3-99.9
		c6.8-21,29.4-32.5,50.4-25.7c21,6.8,32.5,29.4,25.7,50.4c-1.2,4.2-0.8,22.1,8.6,48.3c1.3,3.6,2.6,7.1,4.1,10.6
		c33.9-13.5,65.1-33.9,91.7-60.5c4.7-4.7,9.3-9.6,13.6-14.6c-0.7-0.4-1.4-0.8-2.2-1.2c-26.9-14.1-57.3-25.1-76.9-30.6
		c-21.2-6-33.6-28.2-27.6-49.4c2.9-10.3,9.6-18.8,19-24c9.3-5.2,20.1-6.5,30.4-3.6c11.4,3.2,51.6,15.4,92.3,36.7
		c2.7,1.4,5.4,2.9,8,4.3c10.4-23.4,17.4-48.3,20.8-74c-0.7,0-1.3,0-2,0C665.1,475,655.9,474.1,647.2,472.5z"/>
	<path d="M285.2,543.9c-10.7-2.8-21.6,3.5-24.5,14.2c-5.5,20.6-16.5,52.7-30.9,81.2c-17.5,34.5-36.2,57.1-54.3,65.2
		c-3.4,1.5-6.8,2.5-10.2,3c7-8.9,12.3-19.2,15.5-30.4c6.4-22.7,3.6-46.5-7.8-67.1c-20.2-36.2-62.3-52.6-100.5-42.1
		c14.4-11.5,37.7-20.8,68.4-27.3c31.2-6.6,65.1-8.9,86.4-8.9c11,0,20-9,20-20s-9-20-20-20c-11.3,0-51.6,0.7-94.7,9.8
		c-47.6,10-81.1,26.7-99.7,49.5c-14.4,17.7-19.8,39.2-15.8,62.3c-2.5,4.9-4.5,10.1-6,15.5c-6.4,22.7-3.6,46.5,7.8,67.1
		c11.5,20.6,30.3,35.5,53,41.9c8,2.3,16.1,3.4,24.2,3.4c8.9,0,17.8-1.4,26.4-4.1c0.9,0.7,1.9,1.3,3,1.8c11.7,5.8,23.7,8.8,35.6,8.8
		c10.5,0,20.9-2.3,31-6.8c26.9-12.1,51.6-40.2,73.5-83.6c19.9-39.3,31-78,33.9-88.9C302.2,557.7,295.9,546.8,285.2,543.9z"/>
	<path d="M718,703.7c11.3-21.8,12.4-44.9,3-66.6c-11.7-27-39.4-52.2-82.5-74.8c-39-20.5-77.5-32.1-88.4-35.2
		c-10.6-3-21.7,3.2-24.7,13.8c-3,10.6,3.2,21.7,13.8,24.7c20.5,5.8,52.4,17.3,80.7,32.1c34.2,18,56.5,37.1,64.4,55.3
		c2.9,6.7,3.8,13.2,2.6,19.9c-2.4-2.2-4.9-4.3-7.6-6.2c-39.5-28.5-94.7-19.5-123.2,19.9c-19.4,26.9-21.4,61.1-8.3,89.1
		c-6.3-3.5-12.5-8.3-18.8-14.4c-17.7-17.3-33.9-44.1-44.3-73.5c-10.3-29.1-11.8-51.7-8.8-61.2c3.4-10.5-2.3-21.8-12.8-25.2
		c-10.5-3.4-21.8,2.3-25.2,12.8c-9.4,29,3.2,70.5,9.1,87c12.4,34.9,32.1,67.2,54,88.7c21.8,21.4,46.2,32.4,70.5,32.4
		c7.2,0,14.4-1,21.5-2.9c11.1,4.7,22.8,7.1,34.5,7.1c27.4,0,54.4-12.7,71.7-36.6c17.1-23.7,20.7-53,12.3-78.9
		C714.2,709.3,716.4,706.8,718,703.7z"/>
	<path d="M839.4,261.4c-9.9-37.1-42.3-62.4-78.6-65.2c0.3-5.7-1.9-11.5-6.4-15.6c-18.1-16.7-40-23.7-63.5-20.3
		c-29.2,4.2-60.7,24.3-93.8,59.9c-30,32.3-51.4,66.4-57.2,76.1c-5.7,9.5-2.6,21.8,6.8,27.4c3.2,1.9,6.8,2.9,10.3,2.9
		c6.8,0,13.4-3.5,17.2-9.7c11-18.2,30.4-46.1,52.2-69.4c26.4-28.3,50.6-44.8,70.2-47.6c8-1.1,15.1,0,21.8,3.7
		c-39,17.3-60.9,61-49.5,103.5c10.5,39.4,46.3,65.5,85.3,65.5c4.9,0,9.8-0.4,14.8-1.3c-3,4.1-6.5,8.1-10.6,11.8
		c-13.4,12.5-32.1,22.3-52.5,27.6c-32.9,8.6-63.6,3.9-72.9-11.1c-5.8-9.4-18.2-12.3-27.5-6.4c-9.4,5.8-12.3,18.2-6.4,27.5
		c10.3,16.6,28.3,27.7,51.8,32.1c7.5,1.4,15.5,2.1,23.6,2.1c13.3,0,27.4-1.9,41.5-5.6c26.7-7,51.4-20.1,69.6-37
		c21.2-19.7,33.4-44,35.3-70.4c3.6-4.2,6.8-8.7,9.7-13.6C842.3,308,845.5,284.2,839.4,261.4z"/>
	<path d="M396.8,121.3c-2.7-49.8-31.8-70.5-56.7-79.1c-15.9-23.3-42.7-38.7-73-38.7c-48.7,0-88.2,39.6-88.2,88.2
		c0,2.9,0.1,5.7,0.4,8.5c-16.1,15-24.7,34.1-24.7,55.8c-0.1,29.5,15.2,63.6,45.6,101.6c27.5,34.4,58.2,60.5,66.9,67.7
		c3.7,3.1,8.2,4.5,12.7,4.5c5.8,0,11.5-2.5,15.5-7.3c7-8.5,5.8-21.1-2.8-28.2c-16.4-13.5-41.1-36.8-61.1-61.8
		c-24.2-30.2-36.9-56.6-36.8-76.4c0-4.2,0.6-8.1,1.9-11.7c16.1,21.5,41.8,35.5,70.7,35.5c43.6,0,79.9-31.8,87-73.4
		c1.5,4.9,2.4,10.4,2.7,16.8c1.3,25-6.5,55.7-13.5,82.9c-5,19.4-9.3,36.1-10.2,50.1c-0.8,11,7.6,20.6,18.6,21.3c0.5,0,0.9,0,1.4,0
		c10.4,0,19.2-8.1,19.9-18.6c0.7-10.3,4.8-26.1,9.1-42.9C389.8,186.3,398.5,152.4,396.8,121.3z"/>
</svg>
