<svg xmlns="http://www.w3.org/2000/svg" viewBox="0 0 512 512" style="fill: #aaa">
	<path d="M463.3,459.3h-186v-64c0-11.8-9.6-21.3-21.3-21.3s-21.3,9.6-21.3,21.3v64h-187c-11.8,0-21.3,9.6-21.3,21.3
		S35.9,502,47.7,502h415.7c11.8,0,21.3-9.6,21.3-21.3S475.1,459.3,463.3,459.3z"/>
	<path d="M472.8,36.5H239.3c-14.7,0-26.7,12-26.7,26.7v122.7H144c-14.1,0-21.3,16.9-11.6,27.1l112,117.3c3,3.2,7.2,4.9,11.6,4.9
		s8.6-1.8,11.6-4.9l112-117.3c9.7-10.2,2.5-27.1-11.6-27.1h-68.7v-72.7h173.4c14.7,0,26.7-12,26.7-26.7V63.2
		C499.4,48.5,487.5,36.5,472.8,36.5z"/>
</svg>
