<svg xmlns="http://www.w3.org/2000/svg" viewBox="0 0 150 265">
	<path d="M71.3,176h5.7c22.4,0,40.6-18.2,40.6-40.6V42.6C117.7,20.2,99.5,2,77.1,2h-5.7C48.9,2,30.7,20.2,30.7,42.6
		v92.8C30.7,157.8,48.9,176,71.3,176z"/>
	<path d="M68.8,203.1v43.6H30.7c-4.5,0-8.2,3.6-8.2,8.2c0,4.5,3.7,8.2,8.2,8.2h92.5c4.5,0,8.2-3.6,8.2-8.2
		s-3.7-8.2-8.2-8.2H85.1v-43.8c34.8-3.1,63.3-34.4,63.3-71.2c0-4.5-3.7-8.2-8.2-8.2s-8.2,3.7-8.2,8.2c0,29.9-24.1,55.2-52.7,55.2
		h-8.7C42.1,186.9,18,162.2,18,133c0-4.5-3.7-8.2-8.2-8.2s-8.2,3.7-8.2,8.2C1.7,171,31.6,202.1,68.8,203.1z"/>
</svg>
