<svg xmlns="http://www.w3.org/2000/svg" viewBox="0 0 512 512">
	<path fill="#444" d="M320.5,341.3c1.1-7,1.6-14.1,1.6-21.3c0-7.1-0.5-14.2-1.6-21.2l35.3-27.7c8.3-6.5,10.6-18.3,5.3-27.5l-22.8-39.4
		c-5.3-9.2-16.7-13.1-26.5-9.1l-41.6,16.7c-11.3-9.1-23.7-16.3-36.7-21.2l-6.3-44.4c-1.5-10.4-10.6-18.3-21.1-18.3h-45.5
		c-10.6,0-19.6,7.9-21.1,18.3l-6.3,44.4c-13.1,5-25.5,12.2-36.5,21.2L55,195.2c-9.8-3.9-21.1,0-26.4,9.1L5.8,243.7
		c-5.3,9.2-3,21,5.4,27.5l35.2,27.5c-1.1,7-1.6,14.1-1.6,21.3c0,7.1,0.5,14.2,1.6,21.2l-35.3,27.7c-8.3,6.5-10.6,18.3-5.3,27.5 l22.7,39.4c5.3,9.1,16.7,13.1,26.5,9.1l41.6-16.7c11.3,9.1,23.7,16.3,36.7,21.2l6.3,44.4c1.5,10.4,10.6,18.3,21.1,18.3h45.5 c10.6,0,19.6-7.9,21.1-18.3l6.3-44.4c13.1-5,25.5-12.2,36.5-21.2l41.8,16.7c9.8,3.9,21.2,0,26.4-9.1l22.7-39.4 c5.3-9.2,3-21-5.4-27.5L320.5,341.3z M183.5,394.7c-41.2,0-74.7-33.5-74.7-74.7s33.5-74.7,74.7-74.7c41.2,0,74.7,33.5,74.7,74.7 S224.6,394.7,183.5,394.7z"/>
	<path fill="#444" d="M486.5,116.7c0.4-3.3,1-6.6,1-10c0-3.4-0.6-6.7-1-10l19.2-14.5c4.3-3.2,5.5-9.2,2.8-13.8l-17.3-29.9 c-2.7-4.6-8.4-6.6-13.4-4.5l-22.1,9.3c-5.4-4.1-11.1-7.7-17.5-10.4l-2.9-23.5C434.6,4,430.1,0,424.7,0h-34.5c-5.4,0-9.9,4-10.6,9.3 l-2.9,23.5c-6.3,2.6-12.1,6.3-17.5,10.4l-22.1-9.3c-5-2.1-10.7-0.2-13.4,4.5l-17.2,29.9c-2.7,4.7-1.5,10.6,2.8,13.8l19.2,14.5 c-0.4,3.3-1,6.6-1,10c0,3.4,0.6,6.7,1,10l-19.2,14.6c-4.3,3.2-5.5,9.2-2.8,13.8l17.3,29.9c2.7,4.7,8.4,6.6,13.4,4.5l22.1-9.3 c5.4,4.1,11.1,7.7,17.5,10.4l2.9,23.5c0.7,5.4,5.2,9.4,10.6,9.4h34.5c5.4,0,9.9-4,10.6-9.3l2.9-23.5c6.3-2.6,12.1-6.3,17.5-10.4
		l22.1,9.3c5,2.1,10.7,0.2,13.4-4.5l17.2-29.9c2.7-4.7,1.5-10.6-2.8-13.8L486.5,116.7z
		M407.5,149.3c-23.6,0-42.7-19.1-42.7-42.7
		c0-23.6,19.1-42.7,42.7-42.7c23.6,0,42.7,19.1,42.7,42.7C450.1,130.2,431,149.3,407.5,149.3z"/>
</svg>
