<svg xmlns="http://www.w3.org/2000/svg" viewBox="0 0 520 370">
	<path d="M504.7,12.8c-2.5-0.9-4.9-1.4-7.1-1.4c-5.1,0-9.4,1.8-12.8,5.4L369.6,131.6V84.5c0-22.7-8-42-24.1-58.1
		c-16.1-16.1-35.4-24.1-58.1-24.1h-201c-22.6,0-42,8-58.1,24.1C12.2,42.5,4.2,61.9,4.2,84.5v201c0,22.7,8,42,24.1,58.1
		c16.1,16.1,35.5,24.1,58.1,24.1h201c22.7,0,42-8,58.1-24.1c16.1-16.1,24.1-35.4,24.1-58.1v-47.4l115.1,115.1
		c3.4,3.6,7.7,5.4,12.8,5.4c2.3,0,4.7-0.5,7.1-1.4c7.4-3.2,11.1-8.9,11.1-16.8V29.7C515.8,21.7,512.1,16.1,504.7,12.8z"/>
</svg>
